<svg id="visual" viewBox="0 0 900 600" width="900" height="600" xmlns="http://www.w3.org/2000/svg" xmlns:xlink="http://www.w3.org/1999/xlink" version="1.1"><rect width="900" height="600" fill="#001829"></rect><g><g transform="translate(409 228)"><path d="M0 -24.2L20.9 -12.1L20.9 12.1L0 24.2L-20.9 12.1L-20.9 -12.1Z" fill="none" stroke="#253b46" stroke-width="1"></path></g><g transform="translate(430 455)"><path d="M0 -12L10.4 -6L10.4 6L0 12L-10.4 6L-10.4 -6Z" fill="none" stroke="#253b46" stroke-width="1"></path></g><g transform="translate(507 304)"><path d="M0 -13L11.3 -6.5L11.3 6.5L0 13L-11.3 6.5L-11.3 -6.5Z" fill="none" stroke="#253b46" stroke-width="1"></path></g><g transform="translate(880 361)"><path d="M0 -16L13.9 -8L13.9 8L0 16L-13.9 8L-13.9 -8Z" stroke="#253b46" fill="none" stroke-width="1"></path></g><g transform="translate(562 124)"><path d="M0 -20L17.3 -10L17.3 10L0 20L-17.3 10L-17.3 -10Z" stroke="#253b46" fill="none" stroke-width="1"></path></g><g transform="translate(308 570)"><path d="M0 -15L13 -7.5L13 7.5L0 15L-13 7.5L-13 -7.5Z" stroke="#253b46" fill="none" stroke-width="1"></path></g><g transform="translate(221 71)"><path d="M0 -17L14.7 -8.5L14.7 8.5L0 17L-14.7 8.5L-14.7 -8.5Z" stroke="#253b46" fill="none" stroke-width="1"></path></g><g transform="translate(874 584)"><path d="M0 -10L8.7 -5L8.7 5L0 10L-8.7 5L-8.7 -5Z" stroke="#253b46" fill="none" stroke-width="1"></path></g><g transform="translate(492 87)"><path d="M0 -15L13 -7.5L13 7.5L0 15L-13 7.5L-13 -7.5Z" stroke="#253b46" fill="none" stroke-width="1"></path></g><g transform="translate(341 6)"><path d="M0 -23L19.9 -11.5L19.9 11.5L0 23L-19.9 11.5L-19.9 -11.5Z" stroke="#253b46" fill="none" stroke-width="1"></path></g><g transform="translate(138 402)"><path d="M0 -18L15.6 -9L15.6 9L0 18L-15.6 9L-15.6 -9Z" stroke="#253b46" fill="none" stroke-width="1"></path></g><g transform="translate(691 553)"><path d="M0 -13L11.3 -6.5L11.3 6.5L0 13L-11.3 6.5L-11.3 -6.5Z" stroke="#253b46" fill="none" stroke-width="1"></path></g><g transform="translate(616 580)"><path d="M0 -22L19.1 -11L19.1 11L0 22L-19.1 11L-19.1 -11Z" stroke="#253b46" fill="none" stroke-width="1"></path></g><g transform="translate(5 346)"><path d="M0 -9L7.8 -4.5L7.8 4.5L0 9L-7.8 4.5L-7.8 -4.5Z" stroke="#253b46" fill="none" stroke-width="1"></path></g><g transform="translate(721 67)"><path d="M0 -21L18.2 -10.5L18.2 10.5L0 21L-18.2 10.5L-18.2 -10.5Z" stroke="#253b46" fill="none" stroke-width="1"></path></g><g transform="translate(387 164)"><path d="M0 -13L11.3 -6.5L11.3 6.5L0 13L-11.3 6.5L-11.3 -6.5Z" stroke="#253b46" fill="none" stroke-width="1"></path></g><g transform="translate(513 507)"><path d="M0 -14L12.1 -7L12.1 7L0 14L-12.1 7L-12.1 -7Z" stroke="#253b46" fill="none" stroke-width="1"></path></g><g transform="translate(845 88)"><path d="M0 -13L11.3 -6.5L11.3 6.5L0 13L-11.3 6.5L-11.3 -6.5Z" stroke="#253b46" fill="none" stroke-width="1"></path></g><g transform="translate(635 47)"><path d="M0 -17L14.7 -8.5L14.7 8.5L0 17L-14.7 8.5L-14.7 -8.5Z" stroke="#253b46" fill="none" stroke-width="1"></path></g><g transform="translate(215 498)"><path d="M0 -9L7.8 -4.5L7.8 4.5L0 9L-7.8 4.5L-7.8 -4.5Z" stroke="#253b46" fill="none" stroke-width="1"></path></g><g transform="translate(85 236)"><path d="M0 -11L9.5 -5.5L9.5 5.5L0 11L-9.5 5.5L-9.5 -5.5Z" stroke="#253b46" fill="none" stroke-width="1"></path></g><g transform="translate(778 567)"><path d="M0 -11L9.5 -5.5L9.5 5.5L0 11L-9.5 5.5L-9.5 -5.5Z" stroke="#253b46" fill="none" stroke-width="1"></path></g><g transform="translate(659 158)"><path d="M0 -19L16.5 -9.5L16.5 9.5L0 19L-16.5 9.5L-16.5 -9.5Z" stroke="#253b46" fill="none" stroke-width="1"></path></g></g></svg>