<svg id="visual" viewBox="0 0 900 600" width="900" height="600" xmlns="http://www.w3.org/2000/svg" xmlns:xlink="http://www.w3.org/1999/xlink" version="1.1"><rect width="900" height="600" fill="#1e0a0a"></rect><g><g transform="translate(101 498)"><path d="M0 -88.8L76.9 -44.4L76.9 44.4L0 88.8L-76.9 44.4L-76.9 -44.4Z" fill="none" stroke="#3d1b1b" stroke-width="2"></path></g><g transform="translate(391 339)"><path d="M0 -86L74.5 -43L74.5 43L0 86L-74.5 43L-74.5 -43Z" fill="none" stroke="#3d1b1b" stroke-width="2"></path></g><g transform="translate(631 489)"><path d="M0 -53L45.9 -26.5L45.9 26.5L0 53L-45.9 26.5L-45.9 -26.5Z" fill="none" stroke="#3d1b1b" stroke-width="2"></path></g><g transform="translate(722 222)"><path d="M0 -33L28.6 -16.5L28.6 16.5L0 33L-28.6 16.5L-28.6 -16.5Z" stroke="#3d1b1b" fill="none" stroke-width="2"></path></g><g transform="translate(562 141)"><path d="M0 -35L30.3 -17.5L30.3 17.5L0 35L-30.3 17.5L-30.3 -17.5Z" stroke="#3d1b1b" fill="none" stroke-width="2"></path></g><g transform="translate(173 323)"><path d="M0 -44L38.1 -22L38.1 22L0 44L-38.1 22L-38.1 -22Z" stroke="#3d1b1b" fill="none" stroke-width="2"></path></g><g transform="translate(370 565)"><path d="M0 -39L33.8 -19.5L33.8 19.5L0 39L-33.8 19.5L-33.8 -19.5Z" stroke="#3d1b1b" fill="none" stroke-width="2"></path></g><g transform="translate(753 35)"><path d="M0 -35L30.3 -17.5L30.3 17.5L0 35L-30.3 17.5L-30.3 -17.5Z" stroke="#3d1b1b" fill="none" stroke-width="2"></path></g><g transform="translate(105 89)"><path d="M0 -70L60.6 -35L60.6 35L0 70L-60.6 35L-60.6 -35Z" stroke="#3d1b1b" fill="none" stroke-width="2"></path></g><g transform="translate(811 556)"><path d="M0 -41L35.5 -20.5L35.5 20.5L0 41L-35.5 20.5L-35.5 -20.5Z" stroke="#3d1b1b" fill="none" stroke-width="2"></path></g><g transform="translate(899 348)"><path d="M0 -48L41.6 -24L41.6 24L0 48L-41.6 24L-41.6 -24Z" stroke="#3d1b1b" fill="none" stroke-width="2"></path></g><g transform="translate(5 252)"><path d="M0 -80L69.3 -40L69.3 40L0 80L-69.3 40L-69.3 -40Z" stroke="#3d1b1b" fill="none" stroke-width="2"></path></g><g transform="translate(337 61)"><path d="M0 -46L39.8 -23L39.8 23L0 46L-39.8 23L-39.8 -23Z" stroke="#3d1b1b" fill="none" stroke-width="2"></path></g></g></svg>