<svg id="visual" viewBox="0 0 1080 400" width="1080" height="400" xmlns="http://www.w3.org/2000/svg" xmlns:xlink="http://www.w3.org/1999/xlink" version="1.1"><rect width="1080" height="400" fill="#172a38"></rect><g><g transform="translate(324 216)"><path d="M0 -79.4L62.1 -49.5L77.4 17.7L34.5 71.6L-34.5 71.6L-77.4 17.7L-62.1 -49.5Z" fill="#12303e"></path></g><g transform="translate(1012 312)"><path d="M0 -62L48.5 -38.7L60.4 13.8L26.9 55.9L-26.9 55.9L-60.4 13.8L-48.5 -38.7Z" fill="#12303e"></path></g><g transform="translate(464 115)"><path d="M0 -48L37.5 -29.9L46.8 10.7L20.8 43.2L-20.8 43.2L-46.8 10.7L-37.5 -29.9Z" fill="#12303e"></path></g><g transform="translate(752 301)"><path d="M0 -11L8.6 -6.9L10.7 2.4L4.8 9.9L-4.8 9.9L-10.7 2.4L-8.6 -6.9Z" fill="#12303e"></path></g><g transform="translate(766 101)"><path d="M0 -70L54.7 -43.6L68.2 15.6L30.4 63.1L-30.4 63.1L-68.2 15.6L-54.7 -43.6Z" fill="#12303e"></path></g><g transform="translate(1059 39)"><path d="M0 -76L59.4 -47.4L74.1 16.9L33 68.5L-33 68.5L-74.1 16.9L-59.4 -47.4Z" fill="#12303e"></path></g><g transform="translate(88 21)"><path d="M0 -32L25 -20L31.2 7.1L13.9 28.8L-13.9 28.8L-31.2 7.1L-25 -20Z" fill="#12303e"></path></g></g></svg>