<svg id="visual" viewBox="0 0 960 540" width="960" height="540" xmlns="http://www.w3.org/2000/svg" xmlns:xlink="http://www.w3.org/1999/xlink" version="1.1"><rect width="960" height="540" fill="#0e1a1f"></rect><g><g transform="translate(746 536)"><path d="M34.2 -43.3C41.5 -34.5 42.8 -21.2 43.8 -8.7C44.7 3.7 45.4 15.1 40.7 23.7C35.9 32.2 25.9 37.9 14.4 43.8C3 49.8 -9.9 56.1 -20.1 53.2C-30.3 50.3 -37.8 38.3 -42.7 26.4C-47.5 14.4 -49.5 2.7 -49 -10.1C-48.4 -22.8 -45.3 -36.5 -36.7 -45.1C-28.1 -53.6 -14 -57.1 -0.3 -56.7C13.4 -56.3 26.8 -52.1 34.2 -43.3Z" fill="none" stroke="#193333" stroke-width="1"></path></g><g transform="translate(887 326)"><path d="M19.8 -24.9C24.8 -19.4 27.4 -12.4 28.8 -5C30.2 2.4 30.4 10 27.9 17.7C25.3 25.4 20.1 33.1 13.1 35.3C6.2 37.5 -2.5 34.2 -10.5 30.5C-18.4 26.9 -25.6 22.9 -30.9 16.5C-36.2 10.1 -39.6 1.3 -38.5 -7.1C-37.4 -15.5 -31.9 -23.4 -24.7 -28.6C-17.6 -33.7 -8.8 -36 -0.7 -35.2C7.4 -34.4 14.8 -30.4 19.8 -24.9Z" fill="none" stroke="#193333" stroke-width="1"></path></g><g transform="translate(394 323)"><path d="M20.8 -25.3C25.8 -20.6 28 -12.9 28.8 -5.5C29.6 2 29.1 9.2 26 15.4C22.9 21.6 17.2 26.7 10.2 30.2C3.2 33.6 -5.2 35.4 -11.6 32.7C-18 30 -22.5 22.8 -27.2 15.4C-31.9 8 -36.7 0.3 -36.8 -7.7C-36.8 -15.8 -32.2 -24.3 -25.3 -28.7C-18.3 -33.2 -9.2 -33.5 -0.6 -32.8C7.9 -32 15.8 -30.1 20.8 -25.3Z" fill="none" stroke="#193333" stroke-width="1"></path></g><g transform="translate(461 16)"><path d="M29.9 -33C39.6 -27.4 49 -18.9 49.9 -9.5C50.7 -0.1 43.1 10.2 35.8 18.6C28.5 27.1 21.6 33.8 12.5 39.1C3.4 44.5 -7.9 48.5 -18.9 46.7C-29.9 45 -40.6 37.3 -47.2 26.8C-53.9 16.3 -56.5 2.9 -53 -8.1C-49.5 -19.1 -40 -27.7 -30.2 -33.2C-20.3 -38.8 -10.2 -41.1 -0.1 -41.1C10.1 -41 20.1 -38.5 29.9 -33Z" fill="none" stroke="#193333" stroke-width="1"></path></g><g transform="translate(139 293)"><path d="M27.7 -31.5C35.3 -26.7 40.3 -17.4 40 -8.6C39.7 0.2 34.1 8.3 29.3 17.1C24.5 25.9 20.4 35.4 13.8 37.9C7.1 40.3 -2.1 35.7 -10.8 31.7C-19.6 27.7 -27.8 24.3 -34 17.6C-40.1 11 -44.2 1.3 -42.1 -6.9C-40 -15 -31.7 -21.5 -23.7 -26.1C-15.6 -30.8 -7.8 -33.6 1.1 -34.9C10.1 -36.3 20.2 -36.2 27.7 -31.5Z" fill="none" stroke="#193333" stroke-width="1"></path></g><g transform="translate(900 99)"><path d="M26.7 -31.5C35.7 -24.2 44.9 -16.9 48.6 -6.9C52.3 3 50.6 15.6 43.8 23.2C36.9 30.7 25 33.3 13.6 37.4C2.3 41.5 -8.5 47.2 -16.7 44.8C-25 42.3 -30.6 31.6 -37.1 21.1C-43.5 10.6 -50.6 0.2 -50.8 -10.7C-50.9 -21.6 -44 -32.9 -34.4 -40C-24.8 -47.2 -12.4 -50 -1.8 -47.9C8.8 -45.7 17.7 -38.7 26.7 -31.5Z" fill="none" stroke="#193333" stroke-width="1"></path></g><g transform="translate(441 494)"><path d="M26.1 -30.4C32.4 -25.9 34.8 -16.3 35.4 -7.1C35.9 2 34.5 10.6 31.1 19.2C27.6 27.9 22.1 36.7 13.8 41.3C5.4 45.9 -5.8 46.2 -15.6 42.7C-25.4 39.2 -33.8 31.8 -37.5 22.9C-41.1 14 -40.1 3.5 -37.1 -5.3C-34.1 -14.2 -29.1 -21.5 -22.6 -25.9C-16.1 -30.3 -8.1 -31.8 0.9 -32.9C10 -34.1 19.9 -34.8 26.1 -30.4Z" fill="none" stroke="#193333" stroke-width="1"></path></g><g transform="translate(171 457)"><path d="M28.2 -36.7C36 -27.1 41.3 -17.7 42.7 -7.8C44.1 2 41.5 12.2 36.6 21.5C31.7 30.8 24.5 39.1 14.5 45.1C4.4 51.1 -8.4 54.8 -18.1 50.8C-27.7 46.8 -34.1 35.1 -38.7 23.9C-43.3 12.7 -46.1 2.1 -44.4 -7.9C-42.7 -17.8 -36.5 -26.9 -28.3 -36.4C-20.2 -46 -10.1 -55.9 0.1 -56C10.2 -56.1 20.5 -46.3 28.2 -36.7Z" fill="none" stroke="#193333" stroke-width="1"></path></g><g transform="translate(216 174)"><path d="M36.1 -43.9C45.8 -35 51.8 -22.6 54.3 -9.4C56.8 3.7 55.7 17.6 48.8 26.8C41.8 35.9 29.1 40.3 17.5 41.8C6 43.3 -4.4 41.8 -14.6 38.7C-24.8 35.5 -34.9 30.7 -41.3 22.4C-47.8 14.2 -50.6 2.4 -50 -10.2C-49.4 -22.7 -45.3 -36 -36.4 -45C-27.5 -54 -13.8 -58.7 -0.3 -58.4C13.3 -58.1 26.5 -52.7 36.1 -43.9Z" fill="none" stroke="#193333" stroke-width="1"></path></g><g transform="translate(277 4)"><path d="M35.9 -42.4C44.3 -35.8 47.1 -22.3 46.8 -10.3C46.6 1.8 43.2 12.4 38.2 22.9C33.2 33.5 26.5 44 17.2 47.6C7.8 51.3 -4.2 48 -14.5 42.9C-24.7 37.8 -33 30.8 -37 22.2C-41 13.6 -40.6 3.2 -38.1 -6C-35.7 -15.3 -31.2 -23.6 -24.5 -30.4C-17.8 -37.2 -8.9 -42.6 2.4 -45.5C13.8 -48.4 27.6 -48.9 35.9 -42.4Z" fill="none" stroke="#193333" stroke-width="1"></path></g><g transform="translate(722 81)"><path d="M16.9 -21.1C21.6 -16.3 24.7 -10.6 26.2 -4.3C27.8 2.1 27.8 9.1 25.3 15.7C22.8 22.3 17.7 28.5 11.4 30.3C5.1 32.1 -2.3 29.5 -8.1 25.8C-13.8 22.1 -17.9 17.4 -21 12.1C-24.2 6.7 -26.4 0.8 -25.3 -4.3C-24.2 -9.4 -19.7 -13.8 -14.9 -18.5C-10.1 -23.2 -5.1 -28.2 0.6 -28.9C6.2 -29.6 12.3 -25.8 16.9 -21.1Z" fill="none" stroke="#193333" stroke-width="1"></path></g><g transform="translate(561 221)"><path d="M36 -40.9C46.1 -34.5 53.3 -22.6 54.3 -10.5C55.4 1.6 50.4 13.9 43.1 23.4C35.8 32.8 26.3 39.5 15.3 44.7C4.2 49.9 -8.4 53.7 -17.6 49.7C-26.8 45.7 -32.7 34 -38.5 22.8C-44.3 11.6 -50 0.9 -48 -8.1C-45.9 -17 -36.1 -24.1 -26.8 -30.6C-17.5 -37.2 -8.7 -43.1 2.1 -45.6C13 -48.1 26 -47.3 36 -40.9Z" fill="none" stroke="#193333" stroke-width="1"></path></g><g transform="translate(759 389)"><path d="M23.4 -29.2C28.7 -23.4 30.2 -14.5 29.9 -6.7C29.7 1.2 27.7 8 24.7 15.3C21.7 22.6 17.8 30.4 11.2 34.3C4.6 38.2 -4.6 38.2 -11.9 34.7C-19.2 31.2 -24.4 24.2 -26.9 17C-29.4 9.7 -29.2 2.3 -27.9 -4.9C-26.6 -12.1 -24.3 -19.1 -19.5 -25C-14.6 -30.9 -7.3 -35.6 0.9 -36.7C9.1 -37.7 18.1 -35 23.4 -29.2Z" fill="none" stroke="#193333" stroke-width="1"></path></g><g transform="translate(23 446)"><path d="M21 -22.9C28.4 -18.9 36.3 -13.3 39.3 -5.5C42.4 2.3 40.7 12.4 35.8 20.5C30.9 28.5 22.8 34.5 13.9 37.6C4.9 40.6 -4.9 40.6 -12.1 36.6C-19.3 32.5 -23.8 24.5 -27.3 16.6C-30.7 8.8 -33.1 1.3 -32.9 -6.9C-32.8 -15.1 -30.2 -24 -24.3 -28.2C-18.4 -32.4 -9.2 -32 -1.2 -30.6C6.8 -29.2 13.7 -26.8 21 -22.9Z" fill="none" stroke="#193333" stroke-width="1"></path></g><g transform="translate(747 236)"><path d="M24 -26.9C29.9 -23.5 32.9 -14.9 32.5 -7.2C32 0.5 28.2 7.3 23.8 12.6C19.3 17.9 14.3 21.6 8.3 24.6C2.3 27.5 -4.6 29.6 -10 27.6C-15.3 25.6 -19.1 19.4 -22.9 13.1C-26.7 6.8 -30.5 0.4 -30.9 -6.8C-31.2 -14 -28.1 -21.9 -22.4 -25.2C-16.7 -28.6 -8.3 -27.5 0.3 -27.9C9 -28.3 18 -30.2 24 -26.9Z" fill="none" stroke="#193333" stroke-width="1"></path></g><g transform="translate(20 36)"><path d="M20.5 -26.1C25.2 -20.5 26.8 -12.7 26.8 -5.8C26.8 1.2 25.3 7.4 22.8 14.6C20.4 21.8 17.1 29.9 10.9 33.8C4.7 37.8 -4.4 37.5 -12.8 34.7C-21.2 31.9 -28.7 26.4 -30.8 19.4C-32.9 12.4 -29.4 3.9 -27.2 -4.2C-25 -12.2 -24.1 -19.9 -19.8 -25.6C-15.4 -31.3 -7.7 -35 0.1 -35.1C7.9 -35.2 15.8 -31.7 20.5 -26.1Z" fill="none" stroke="#193333" stroke-width="1"></path></g><g transform="translate(953 499)"><path d="M27.9 -32.4C35.6 -26.7 41 -17.4 40.6 -8.8C40.2 -0.1 33.9 7.9 28.1 14.5C22.2 21 16.8 26.1 10.2 28.9C3.6 31.7 -4.2 32.2 -10.6 29.7C-17.1 27.1 -22.3 21.5 -25.8 15.1C-29.3 8.6 -31.1 1.4 -31.3 -6.8C-31.4 -15.1 -29.8 -24.4 -24.3 -30.5C-18.8 -36.6 -9.4 -39.6 0.3 -40C10.1 -40.4 20.1 -38.2 27.9 -32.4Z" fill="none" stroke="#193333" stroke-width="1"></path></g><g transform="translate(58 174)"><path d="M30.7 -37.1C38.4 -30.2 42 -19.2 42.1 -8.9C42.1 1.3 38.5 10.7 33.9 20.5C29.4 30.2 23.8 40.2 15.4 44C7 47.7 -4.3 45.3 -13.6 40.5C-23 35.8 -30.4 28.8 -36.5 20.1C-42.7 11.4 -47.6 1.1 -47.2 -9.5C-46.8 -20.2 -41 -31 -32.2 -37.7C-23.5 -44.4 -11.7 -46.9 -0.1 -46.8C11.6 -46.7 23.1 -44 30.7 -37.1Z" fill="none" stroke="#193333" stroke-width="1"></path></g><g transform="translate(590 429)"><path d="M28.8 -34.1C39 -25.7 50.2 -18.3 54.5 -7.6C58.7 3 55.9 16.8 49.3 28.8C42.8 40.7 32.4 50.6 19.9 55.7C7.3 60.7 -7.4 60.9 -19.1 55.3C-30.7 49.8 -39.2 38.7 -42.6 27.3C-45.9 15.9 -44 4.2 -42.6 -8.1C-41.2 -20.5 -40.1 -33.6 -33.1 -42.5C-26.1 -51.5 -13 -56.4 -1.9 -54.2C9.3 -51.9 18.5 -42.5 28.8 -34.1Z" fill="none" stroke="#193333" stroke-width="1"></path></g><g transform="translate(366 156)"><path d="M19.3 -24.9C24.2 -18.9 26.7 -12 28.1 -4.8C29.5 2.4 29.9 9.9 27.6 17.9C25.3 25.8 20.4 34.1 13.3 36.9C6.1 39.6 -3.2 36.9 -10.1 32.4C-17.1 27.9 -21.8 21.6 -27.3 14.5C-32.8 7.5 -39.1 -0.3 -39.2 -8.2C-39.4 -16.2 -33.3 -24.3 -25.7 -29.8C-18.2 -35.2 -9.1 -38 -0.9 -36.9C7.2 -35.8 14.5 -30.8 19.3 -24.9Z" fill="none" stroke="#193333" stroke-width="1"></path></g><g transform="translate(291 536)"><path d="M33.4 -38.6C41.7 -32.9 45.7 -20.8 47 -8.9C48.3 2.9 47 14.6 41.1 22.7C35.2 30.9 24.9 35.4 15 37.4C5 39.4 -4.5 38.9 -14 36.3C-23.5 33.8 -33 29.2 -37.9 21.5C-42.7 13.8 -42.9 3.1 -41.1 -7.3C-39.3 -17.7 -35.5 -27.7 -28.3 -33.7C-21.1 -39.6 -10.6 -41.5 1 -42.7C12.6 -43.9 25.1 -44.4 33.4 -38.6Z" fill="none" stroke="#193333" stroke-width="1"></path></g></g></svg>