<svg id="visual" viewBox="0 0 900 150" width="900" height="150" xmlns="http://www.w3.org/2000/svg" xmlns:xlink="http://www.w3.org/1999/xlink" version="1.1"><path d="M0 90L75 68L150 105L225 85L300 84L375 77L450 79L525 104L600 87L675 74L750 88L825 80L900 94L900 0L825 0L750 0L675 0L600 0L525 0L450 0L375 0L300 0L225 0L150 0L75 0L0 0Z" fill="#4c2020"></path><path d="M0 75L75 91L150 79L225 67L300 80L375 62L450 74L525 86L600 71L675 85L750 76L825 89L900 63L900 0L825 0L750 0L675 0L600 0L525 0L450 0L375 0L300 0L225 0L150 0L75 0L0 0Z" fill="#5d3433"></path><path d="M0 85L75 80L150 82L225 55L300 76L375 74L450 84L525 59L600 58L675 64L750 67L825 81L900 82L900 0L825 0L750 0L675 0L600 0L525 0L450 0L375 0L300 0L225 0L150 0L75 0L0 0Z" fill="#6f4847"></path><path d="M0 74L75 72L150 63L225 52L300 67L375 62L450 57L525 60L600 63L675 51L750 60L825 55L900 61L900 0L825 0L750 0L675 0L600 0L525 0L450 0L375 0L300 0L225 0L150 0L75 0L0 0Z" fill="#805d5c"></path><path d="M0 50L75 61L150 62L225 45L300 60L375 56L450 62L525 54L600 60L675 42L750 64L825 44L900 56L900 0L825 0L750 0L675 0L600 0L525 0L450 0L375 0L300 0L225 0L150 0L75 0L0 0Z" fill="#917372"></path><path d="M0 38L75 35L150 44L225 51L300 39L375 43L450 37L525 44L600 53L675 52L750 54L825 38L900 47L900 0L825 0L750 0L675 0L600 0L525 0L450 0L375 0L300 0L225 0L150 0L75 0L0 0Z" fill="#a38988"></path><path d="M0 41L75 43L150 43L225 46L300 28L375 45L450 43L525 42L600 31L675 41L750 42L825 35L900 38L900 0L825 0L750 0L675 0L600 0L525 0L450 0L375 0L300 0L225 0L150 0L75 0L0 0Z" fill="#b4a0a0"></path><path d="M0 32L75 28L150 27L225 23L300 27L375 34L450 27L525 35L600 36L675 27L750 26L825 26L900 22L900 0L825 0L750 0L675 0L600 0L525 0L450 0L375 0L300 0L225 0L150 0L75 0L0 0Z" fill="#c6b8b7"></path><path d="M0 16L75 24L150 17L225 24L300 19L375 20L450 22L525 21L600 20L675 17L750 19L825 24L900 16L900 0L825 0L750 0L675 0L600 0L525 0L450 0L375 0L300 0L225 0L150 0L75 0L0 0Z" fill="#d7d0cf"></path><path d="M0 15L75 16L150 10L225 16L300 14L375 12L450 10L525 15L600 15L675 14L750 9L825 16L900 15L900 0L825 0L750 0L675 0L600 0L525 0L450 0L375 0L300 0L225 0L150 0L75 0L0 0Z" fill="#e9e8e8"></path></svg>