<svg id="visual" viewBox="0 0 900 150" width="900" height="150" xmlns="http://www.w3.org/2000/svg" xmlns:xlink="http://www.w3.org/1999/xlink" version="1.1"><path d="M0 49L75 74L150 79L225 77L300 55L375 72L450 61L525 67L600 76L675 53L750 52L825 44L900 66L900 151L825 151L750 151L675 151L600 151L525 151L450 151L375 151L300 151L225 151L150 151L75 151L0 151Z" fill="#1e414b"></path><path d="M0 73L75 79L150 79L225 75L300 60L375 76L450 68L525 85L600 67L675 54L750 64L825 56L900 61L900 151L825 151L750 151L675 151L600 151L525 151L450 151L375 151L300 151L225 151L150 151L75 151L0 151Z" fill="#38515e"></path><path d="M0 72L75 68L150 67L225 64L300 69L375 83L450 68L525 70L600 78L675 73L750 75L825 79L900 67L900 151L825 151L750 151L675 151L600 151L525 151L450 151L375 151L300 151L225 151L150 151L75 151L0 151Z" fill="#526170"></path><path d="M0 74L75 92L150 93L225 99L300 97L375 86L450 82L525 76L600 99L675 87L750 74L825 83L900 89L900 151L825 151L750 151L675 151L600 151L525 151L450 151L375 151L300 151L225 151L150 151L75 151L0 151Z" fill="#6b7180"></path><path d="M0 106L75 84L150 102L225 105L300 107L375 91L450 91L525 104L600 91L675 83L750 89L825 83L900 106L900 151L825 151L750 151L675 151L600 151L525 151L450 151L375 151L300 151L225 151L150 151L75 151L0 151Z" fill="#838390"></path><path d="M0 103L75 110L150 98L225 96L300 99L375 94L450 107L525 107L600 110L675 107L750 110L825 93L900 94L900 151L825 151L750 151L675 151L600 151L525 151L450 151L375 151L300 151L225 151L150 151L75 151L0 151Z" fill="#9a95a0"></path><path d="M0 117L75 110L150 110L225 117L300 109L375 116L450 115L525 107L600 113L675 118L750 113L825 109L900 115L900 151L825 151L750 151L675 151L600 151L525 151L450 151L375 151L300 151L225 151L150 151L75 151L0 151Z" fill="#b0a9b0"></path><path d="M0 117L75 123L150 112L225 115L300 119L375 117L450 125L525 122L600 113L675 122L750 113L825 113L900 123L900 151L825 151L750 151L675 151L600 151L525 151L450 151L375 151L300 151L225 151L150 151L75 151L0 151Z" fill="#c4bdc1"></path><path d="M0 132L75 131L150 122L225 127L300 130L375 123L450 122L525 128L600 127L675 127L750 129L825 125L900 131L900 151L825 151L750 151L675 151L600 151L525 151L450 151L375 151L300 151L225 151L150 151L75 151L0 151Z" fill="#d7d2d3"></path><path d="M0 137L75 139L150 139L225 132L300 135L375 133L450 138L525 137L600 131L675 137L750 133L825 134L900 139L900 151L825 151L750 151L675 151L600 151L525 151L450 151L375 151L300 151L225 151L150 151L75 151L0 151Z" fill="#e9e8e8"></path></svg>